<svg width="30" height="30" viewBox="0 0 30 30" fill="none" xmlns="http://www.w3.org/2000/svg">
<path d="M20.0558 14.9969C20.0558 15.9222 19.7814 16.8268 19.2673 17.5962C18.7533 18.3655 18.0226 18.9652 17.1677 19.3193C16.3128 19.6734 15.3721 19.7661 14.4645 19.5855C13.557 19.405 12.7234 18.9594 12.069 18.3051C11.4147 17.6508 10.9692 16.8172 10.7886 15.9096C10.6081 15.0021 10.7008 14.0614 11.0549 13.2065C11.409 12.3516 12.0086 11.6209 12.778 11.1068C13.5474 10.5928 14.4519 10.3184 15.3773 10.3184C16.6169 10.3222 17.8047 10.8164 18.6812 11.6929C19.5578 12.5695 20.052 13.7573 20.0558 14.9969ZM29.9977 8.56391V21.4299C29.9977 23.6013 29.1351 25.6838 27.5997 27.2193C26.0642 28.7547 23.9817 29.6173 21.8103 29.6173H8.94428C6.77284 29.6173 4.69033 28.7547 3.15488 27.2193C1.61944 25.6838 0.756836 23.6013 0.756836 21.4299V8.56391C0.756836 6.39246 1.61944 4.30996 3.15488 2.77451C4.69033 1.23907 6.77284 0.376465 8.94428 0.376465H21.8103C23.9817 0.376465 26.0642 1.23907 27.5997 2.77451C29.1351 4.30996 29.9977 6.39246 29.9977 8.56391ZM22.3951 14.9969C22.3951 13.6089 21.9835 12.2521 21.2124 11.098C20.4412 9.94394 19.3452 9.04445 18.0629 8.51329C16.7805 7.98213 15.3695 7.84315 14.0082 8.11394C12.6468 8.38472 11.3964 9.0531 10.4149 10.0346C9.43347 11.016 8.76509 12.2665 8.49431 13.6278C8.22353 14.9891 8.3625 16.4002 8.89366 17.6825C9.42482 18.9648 10.3243 20.0609 11.4784 20.832C12.6325 21.6031 13.9893 22.0147 15.3773 22.0147C17.2385 22.0147 19.0235 21.2753 20.3396 19.9592C21.6557 18.6431 22.3951 16.8581 22.3951 14.9969ZM24.7344 7.39427C24.7344 7.04728 24.6315 6.70807 24.4387 6.41955C24.2459 6.13104 23.9719 5.90616 23.6513 5.77337C23.3307 5.64058 22.978 5.60584 22.6376 5.67353C22.2973 5.74123 21.9847 5.90832 21.7393 6.15369C21.494 6.39905 21.3269 6.71167 21.2592 7.052C21.1915 7.39233 21.2262 7.74509 21.359 8.06568C21.4918 8.38626 21.7167 8.66027 22.0052 8.85305C22.2937 9.04583 22.6329 9.14873 22.9799 9.14873C23.4452 9.14873 23.8915 8.96388 24.2205 8.63486C24.5495 8.30584 24.7344 7.85958 24.7344 7.39427Z" fill="#D9A831"/>
</svg>
