<svg width="32" height="32" viewBox="0 0 32 32" fill="none" xmlns="http://www.w3.org/2000/svg">
<circle cx="16.185" cy="15.9999" r="15.5951" fill="#D9A831"/>
<path d="M14.0326 22.4123C15.4632 22.4123 16.6229 21.3881 16.6229 19.822V8.2041H19.7294C19.5552 10.3229 21.6614 12.3696 23.9843 12.3228V15.2439C21.9978 15.2439 20.3085 14.4039 19.7206 13.9378V19.822C19.7206 22.4123 17.6828 25.3496 14.0326 25.3496C10.3824 25.3496 8.38916 22.4123 8.38916 19.822C8.38916 16.1661 12.2581 14.0458 14.8206 14.564V17.5393C14.6916 17.4937 14.3592 17.4263 14.0761 17.4263C12.6336 17.3731 11.4423 18.5431 11.4423 19.822C11.4423 21.2526 12.6021 22.4123 14.0326 22.4123Z" fill="white"/>
</svg>
